<svg width="509" height="468" viewBox="0 0 509 468" fill="none" xmlns="http://www.w3.org/2000/svg">
<g clip-path="url(#clip0_32_242)">
<path d="M500.371 406.019C498.232 385.53 487.571 365.343 471.165 358.675C477.635 379.764 477.633 402.899 471.161 423.986C468.64 432.108 465.126 440.829 467.497 449.014C468.973 454.108 472.582 458.004 476.617 460.441C480.651 462.878 485.129 464.039 489.551 465.177L490.421 466.034C497.44 447.156 502.51 426.508 500.371 406.019Z" fill="#F0F0F0"/>
<path d="M471.002 359.063C480.556 371.813 486.494 387.824 487.973 404.823C488.346 408.475 488.233 412.175 487.638 415.786C486.964 419.281 485.516 422.497 483.445 425.1C481.555 427.574 479.381 429.843 478.029 432.821C477.355 434.357 476.962 436.046 476.875 437.776C476.788 439.506 477.01 441.238 477.524 442.859C478.718 446.938 481.072 450.263 483.468 453.419C486.128 456.923 488.938 460.512 490.069 465.158C490.206 465.721 490.932 465.434 490.795 464.872C488.827 456.79 482.24 452.199 479.098 444.919C477.632 441.522 477.017 437.579 478.391 433.993C479.593 430.857 481.833 428.515 483.765 426.03C485.817 423.526 487.322 420.462 488.15 417.105C488.897 413.542 489.129 409.853 488.837 406.197C488.29 397.954 486.658 389.865 484 382.225C481.008 373.487 476.783 365.422 471.508 358.38C471.181 357.945 470.678 358.63 471.002 359.063Z" fill="white"/>
<path d="M487.767 399.316C490.128 398.633 492.208 396.973 493.636 394.632C495.064 392.292 495.747 389.422 495.563 386.537C495.524 385.953 494.761 385.998 494.8 386.582C494.976 389.269 494.339 391.941 493.006 394.118C491.672 396.294 489.729 397.831 487.528 398.452C487.049 398.587 487.292 399.45 487.767 399.316Z" fill="white"/>
<path d="M484.542 423.997C480.278 420.964 477.13 416.129 475.726 410.455C475.588 409.893 474.862 410.179 475.001 410.741C476.471 416.642 479.755 421.665 484.198 424.809C484.622 425.109 484.963 424.294 484.542 423.997Z" fill="white"/>
<path d="M480.299 374.348C479.432 374.839 478.476 375.066 477.517 375.008C476.558 374.95 475.626 374.609 474.805 374.016C474.385 373.711 474.044 374.525 474.462 374.829C475.371 375.479 476.401 375.854 477.46 375.921C478.52 375.987 479.577 375.744 480.539 375.212C480.633 375.171 480.711 375.089 480.756 374.982C480.801 374.876 480.81 374.752 480.782 374.638C480.75 374.523 480.681 374.429 480.591 374.375C480.5 374.321 480.396 374.311 480.299 374.348Z" fill="white"/>
<path d="M421.158 395.27C421.416 395.47 421.674 395.67 421.932 395.877C425.387 398.583 428.652 401.619 431.694 404.955C431.932 405.208 432.171 405.469 432.403 405.73C439.661 413.86 445.588 423.524 449.884 434.231C451.59 438.493 453.021 442.904 454.165 447.425C455.745 453.669 457.041 460.589 460.169 465.696C460.49 466.233 460.839 466.746 461.213 467.232H489.475C489.54 467.193 489.604 467.163 489.669 467.124L490.797 467.186C490.752 466.948 490.7 466.702 490.655 466.464C490.629 466.326 490.597 466.187 490.571 466.049C490.552 465.957 490.533 465.865 490.52 465.78C490.513 465.75 490.507 465.719 490.5 465.696C490.488 465.611 490.468 465.535 490.455 465.458C490.171 464.083 489.879 462.708 489.578 461.334C489.578 461.326 489.578 461.326 489.572 461.318C487.257 450.85 484.188 440.521 479.9 431.074C479.771 430.79 479.642 430.498 479.5 430.214C477.547 425.969 475.307 421.921 472.8 418.111C471.422 416.029 469.957 414.033 468.409 412.128C464.403 407.216 459.772 403.084 454.688 399.886C444.551 393.512 432.816 391.069 421.983 394.963C421.706 395.063 421.435 395.163 421.158 395.27Z" fill="#F0F0F0"/>
<path d="M421.221 395.698C435.295 399.027 448.13 407.553 457.903 420.065C460.047 422.714 461.827 425.749 463.178 429.059C464.406 432.333 464.876 435.939 464.538 439.503C464.279 442.833 463.69 446.204 464.116 449.551C464.355 451.261 464.895 452.891 465.7 454.334C466.505 455.778 467.557 457.002 468.787 457.928C471.803 460.328 475.362 461.295 478.871 462.097C482.766 462.987 486.825 463.838 490.076 466.736C490.47 467.087 490.904 466.338 490.511 465.988C484.854 460.945 477.274 462.004 471.086 458.444C468.198 456.783 465.713 454.075 464.998 450.227C464.373 446.862 464.977 443.385 465.264 440.016C465.636 436.545 465.289 433.019 464.253 429.744C463.048 426.364 461.369 423.252 459.288 420.543C454.684 414.354 449.291 409.065 443.308 404.871C436.502 400.039 429.052 396.63 421.28 394.791C420.799 394.677 420.743 395.585 421.221 395.698Z" fill="white"/>
<path d="M454.955 415.816C456.495 413.578 457.317 410.761 457.274 407.867C457.231 404.974 456.326 402.194 454.72 400.022C454.394 399.584 453.807 400.167 454.134 400.606C455.632 402.625 456.475 405.215 456.51 407.909C456.546 410.603 455.771 413.224 454.327 415.298C454.014 415.749 454.643 416.264 454.955 415.816Z" fill="white"/>
<path d="M464.856 437.835C459.919 438.471 454.961 436.868 450.972 433.344C450.577 432.995 450.143 433.743 450.537 434.092C454.694 437.75 459.856 439.406 464.992 438.73C465.482 438.665 465.343 437.77 464.856 437.835Z" fill="white"/>
<path d="M436.372 401.236C435.927 402.249 435.279 403.116 434.484 403.757C433.689 404.399 432.772 404.795 431.817 404.91C431.327 404.967 431.467 405.862 431.953 405.805C433.008 405.672 434.02 405.233 434.9 404.527C435.779 403.821 436.5 402.868 437 401.754C437.054 401.653 437.074 401.532 437.057 401.414C437.039 401.297 436.984 401.192 436.903 401.121C436.82 401.053 436.717 401.026 436.618 401.048C436.518 401.069 436.43 401.137 436.372 401.236Z" fill="white"/>
<path d="M282.88 25.0376C282.199 26.0497 281.712 27.2273 281.454 28.4877C281.196 29.748 281.174 31.0604 281.388 32.3323C281.602 33.6042 282.047 34.8047 282.693 35.8493C283.339 36.8939 284.169 37.7572 285.125 38.3783L280.769 69.481L293.343 62.8341L295.553 34.3176C296.322 32.3352 296.455 30.0855 295.925 27.9947C295.395 25.9039 294.239 24.1172 292.677 22.9734C291.115 21.8295 289.255 21.4078 287.449 21.7883C285.643 22.1687 284.018 23.3249 282.88 25.0376Z" fill="#9E616A"/>
<path d="M396.007 455.333L385.725 455.333L380.833 408.096L396.009 408.097L396.007 455.333Z" fill="#9E616A"/>
<path d="M398.629 467.204L365.475 467.203V466.704C365.476 462.627 366.835 458.718 369.255 455.836C371.675 452.954 374.957 451.334 378.38 451.334H378.381L398.63 451.335L398.629 467.204Z" fill="#2F2E41"/>
<path d="M327.013 455.333L316.73 455.333L311.839 408.096L327.015 408.097L327.013 455.333Z" fill="#9E616A"/>
<path d="M329.635 467.204L296.481 467.203V466.704C296.481 462.627 297.841 458.718 300.261 455.836C302.681 452.954 305.963 451.334 309.385 451.334H309.386L329.635 451.335L329.635 467.204Z" fill="#2F2E41"/>
<path d="M322.727 234.913L318.883 240.933C318.883 240.933 318.535 243.745 312.706 266.65L309.508 438.816H328.852L354.709 301.063L381.545 441.58L398.314 442.758L397.525 283.046C397.525 283.046 399.643 250.189 392.136 244.087C384.628 237.985 322.727 234.913 322.727 234.913Z" fill="#2F2E41"/>
<path d="M348.668 90.2348C359.879 90.2348 368.967 79.4104 368.967 66.0578C368.967 52.7053 359.879 41.8809 348.668 41.8809C337.458 41.8809 328.369 52.7053 328.369 66.0578C328.369 79.4104 337.458 90.2348 348.668 90.2348Z" fill="#9E616A"/>
<path d="M369.089 69.8429L368.754 69.0445C368.236 67.8096 363.944 57.5436 363.405 54.904L358.003 55.6608L343.936 55.6634L345.891 52.1714L340.723 52.9743C338.834 53.2476 337.028 54.0585 335.457 55.3382C334.494 56.1007 333.679 57.1011 333.069 58.2715C331.223 62.0365 328.402 68.1947 328.374 68.2566L328.104 68.8457L325.761 64.1504C325.73 63.9681 322.826 45.925 332.546 39.8058C333.047 38.593 337.319 29.0538 347.415 29.6977C348.525 28.1908 350.089 27.2651 351.767 27.121C354.073 26.9778 356.467 28.4204 358.87 31.4268C362.063 35.4198 366.436 40.888 369.081 46.9596L369.81 48.1994C370.847 49.9737 371.36 52.1072 371.27 54.2661C371.832 57.7116 371.632 61.2718 370.691 64.5977L369.089 69.8429Z" fill="#2F2E41"/>
<path d="M364.135 94.7842L375.367 102.178L397.431 109.537L390.845 178.308L392.043 246.049C392.043 246.049 354.696 276.522 318.883 240.933V155.667L321.002 109.537C321.002 109.537 329.572 106.637 333.887 111.639L342.071 98.9769L364.135 94.7842Z" fill="#E4E4E4"/>
<path d="M325.951 115.872L321.002 109.536L293.73 105.857L296.289 55.9685L281.421 43.335L270.497 113.568L320.958 155.666L325.951 115.872Z" fill="#E4E4E4"/>
<path d="M381.232 268.434C381.029 267.16 381.062 265.848 381.331 264.591C381.599 263.333 382.096 262.162 382.785 261.158C383.475 260.154 384.341 259.342 385.323 258.78C386.305 258.218 387.378 257.919 388.467 257.905L396.863 228L405.353 240.893L396.078 267.315C395.978 269.495 395.209 271.556 393.918 273.107C392.627 274.658 390.903 275.591 389.073 275.729C387.243 275.867 385.434 275.2 383.989 273.856C382.543 272.511 381.563 270.582 381.232 268.434Z" fill="#9E616A"/>
<path d="M389.142 117.408L397.431 109.536C397.431 109.536 405.907 115.104 408.486 125.088C411.065 135.072 415.579 191.904 415.579 191.904L403.328 264.864L389.627 253.547L396.235 195.744L384.628 153.504L389.142 117.408Z" fill="#E4E4E4"/>
<path d="M285.228 0H76.1794V60.5046H285.228V0Z" fill="#E6E6E6"/>
<path d="M81.6644 53.9715H279.743V6.5332H81.6644V53.9715Z" fill="white"/>
<path d="M119.392 48.3253C127.772 48.3253 134.566 40.2338 134.566 30.2525C134.566 20.2712 127.772 12.1797 119.392 12.1797C111.012 12.1797 104.218 20.2712 104.218 30.2525C104.218 40.2338 111.012 48.3253 119.392 48.3253Z" fill="#E04B4B"/>
<path d="M257.189 23.1802H155.677V27.1091H257.189V23.1802Z" fill="#E04B4B"/>
<path d="M257.189 33.3955H155.677V37.3244H257.189V33.3955Z" fill="#E04B4B"/>
<path d="M0 91.9614L176.88 107.328V162.643L0 158.731V91.9614Z" fill="#E6E6E6"/>
<path d="M5.57193 151.684L173.018 156.562V112.992L5.57193 99.6162V151.684Z" fill="white"/>
<path d="M42.3231 108.527C44.2562 108.676 46.1389 109.325 47.8396 110.429C49.5454 111.54 51.0587 113.026 52.299 114.809C53.5879 116.654 54.5975 118.752 55.2825 121.009C56.0053 123.383 56.3741 125.89 56.3723 128.416C56.3799 130.903 56.0107 133.372 55.2825 135.703C54.6071 137.869 53.5949 139.863 52.299 141.581C51.0547 143.232 49.5362 144.558 47.8396 145.475C46.1074 146.402 44.221 146.846 42.3231 146.776C40.3807 146.702 38.4758 146.12 36.7443 145.069C34.9903 144 33.4272 142.537 32.1416 140.759C30.7927 138.901 29.7337 136.77 29.0147 134.468C28.2517 132.036 27.8618 129.461 27.8635 126.865C27.855 124.307 28.2454 121.77 29.0147 119.383C29.7245 117.178 30.7867 115.158 32.1423 113.435C33.4336 111.793 35.0023 110.495 36.7451 109.627C38.5095 108.758 40.4176 108.382 42.3231 108.527Z" fill="#E6E6E6"/>
<path d="M75.267 122.213L156.763 127.272V130.948L75.267 126.232V122.213Z" fill="#E6E6E6"/>
<path d="M75.267 132.664L156.763 136.83V140.507L75.267 136.682V132.664Z" fill="#E6E6E6"/>
<path d="M0 204.33L176.88 200.418V255.733L0 271.1V204.33Z" fill="#E6E6E6"/>
<path d="M5.57193 263.444L173.018 250.068V206.503L5.57193 211.381V263.444Z" fill="white"/>
<path d="M27.8756 235.315C27.9615 232.721 28.4385 230.167 29.2839 227.774C30.0778 225.519 31.2064 223.453 32.6156 221.675C33.9568 219.976 35.5649 218.607 37.3487 217.646C39.113 216.7 41.0317 216.233 42.9662 216.278C44.8646 216.325 46.7294 216.884 48.4198 217.914C50.0819 218.936 51.5502 220.353 52.7336 222.078C53.9677 223.875 54.9098 225.93 55.5116 228.139C56.1596 230.512 56.4454 233.004 56.3557 235.497C56.2743 238.02 55.8231 240.507 55.0224 242.845C54.2651 245.062 53.187 247.103 51.8371 248.875C50.5407 250.585 48.9804 251.983 47.2413 252.992C45.5044 253.995 43.6034 254.531 41.6731 254.561C39.7617 254.588 37.8705 254.094 36.1444 253.115C34.4339 252.138 32.9147 250.743 31.685 249.023C30.3919 247.214 29.402 245.127 28.769 242.875C28.0835 240.442 27.7807 237.879 27.8756 235.315Z" fill="#E6E6E6"/>
<path d="M75.267 226.379L156.763 222.554V226.231L75.267 230.397V226.379Z" fill="#E6E6E6"/>
<path d="M75.267 236.828L156.763 232.113V235.789L75.267 240.848V236.828Z" fill="#E6E6E6"/>
<path d="M508.355 468H262.683C262.512 468 262.348 467.919 262.227 467.775C262.106 467.631 262.038 467.436 262.038 467.232C262.038 467.028 262.106 466.833 262.227 466.689C262.348 466.545 262.512 466.464 262.683 466.464H508.355C508.526 466.464 508.69 466.545 508.811 466.689C508.932 466.833 509 467.028 509 467.232C509 467.436 508.932 467.631 508.811 467.775C508.69 467.919 508.526 468 508.355 468Z" fill="#CACACA"/>
<rect x="507.998" y="24.4082" width="573.126" height="65.7959" fill="#D9D9D9"/>
</g>
<defs>
<clipPath id="clip0_32_242">
<rect width="509" height="468" fill="white"/>
</clipPath>
</defs>
</svg>
