<svg width="490" height="329" viewBox="0 0 490 329" fill="none" xmlns="http://www.w3.org/2000/svg">
<g clip-path="url(#clip0_31_39)">
<path d="M481.684 135.722H168.383C167.053 135.722 165.777 136.473 164.836 137.809C163.896 139.145 163.367 140.957 163.367 142.846C163.367 144.735 163.896 146.547 164.836 147.883C165.777 149.219 167.053 149.97 168.383 149.97H177.257V320.392C177.257 322.281 177.786 324.093 178.727 325.429C179.667 326.765 180.943 327.516 182.273 327.516C183.604 327.516 184.879 326.765 185.82 325.429C186.761 324.093 187.289 322.281 187.289 320.392L187.365 149.97H438.821L462.006 320.392C462.006 322.281 462.534 324.093 463.475 325.429C464.416 326.765 465.692 327.516 467.022 327.516C468.352 327.516 469.628 326.765 470.569 325.429C471.509 324.093 472.038 322.281 472.038 320.392L473.497 149.97H481.684C483.014 149.97 484.29 149.219 485.23 147.883C486.171 146.547 486.7 144.735 486.7 142.846C486.7 140.957 486.171 139.145 485.23 137.809C484.29 136.473 483.014 135.722 481.684 135.722Z" fill="#CCCCCC"/>
<path d="M222.69 103.98V134.147H169.473C168.078 134.216 166.688 133.894 165.381 133.2C164.074 132.505 162.876 131.452 161.855 130.1C160.835 128.748 160.012 127.124 159.433 125.32C158.854 123.517 158.532 121.569 158.483 119.588C158.435 117.607 158.661 115.632 159.15 113.776C159.639 111.92 160.381 110.218 161.333 108.769C162.284 107.319 163.428 106.15 164.698 105.329C165.968 104.507 167.339 104.049 168.734 103.98C168.98 103.968 169.227 103.968 169.473 103.98L222.69 103.98Z" fill="#F2F2F2"/>
<path d="M223.997 133.915C223.997 134.223 223.911 134.518 223.757 134.735C223.604 134.953 223.397 135.075 223.18 135.075H168.525C165.558 135.072 162.713 133.396 160.616 130.415C158.519 127.435 157.341 123.393 157.341 119.179C157.341 114.965 158.519 110.924 160.616 107.943C162.713 104.963 165.558 103.287 168.525 103.284H223.18C223.287 103.283 223.394 103.313 223.493 103.371C223.593 103.429 223.683 103.515 223.759 103.622C223.835 103.73 223.895 103.858 223.937 103.999C223.978 104.14 223.999 104.291 223.999 104.444C223.999 104.596 223.978 104.748 223.937 104.889C223.895 105.03 223.835 105.158 223.759 105.265C223.683 105.373 223.593 105.459 223.493 105.517C223.394 105.575 223.287 105.605 223.18 105.604H168.525C165.993 105.61 163.565 107.042 161.776 109.587C159.986 112.133 158.981 115.583 158.981 119.179C158.981 122.776 159.986 126.226 161.776 128.771C163.565 131.316 165.993 132.749 168.525 132.755H223.18C223.397 132.755 223.604 132.877 223.757 133.095C223.911 133.312 223.997 133.607 223.997 133.915Z" fill="#E04B4B"/>
<path d="M222.69 110.941H165.502C165.459 110.942 165.418 110.918 165.387 110.875C165.356 110.832 165.339 110.773 165.338 110.711C165.338 110.65 165.355 110.591 165.385 110.547C165.415 110.503 165.456 110.478 165.499 110.477H222.69C222.733 110.478 222.774 110.503 222.804 110.546C222.834 110.59 222.851 110.648 222.851 110.709C222.851 110.771 222.834 110.829 222.804 110.873C222.774 110.916 222.733 110.941 222.69 110.941Z" fill="#CCCCCC"/>
<path d="M222.69 116.511H165.502C165.459 116.511 165.418 116.487 165.387 116.444C165.356 116.401 165.339 116.342 165.338 116.281C165.338 116.219 165.355 116.16 165.385 116.116C165.415 116.073 165.456 116.047 165.499 116.047H222.69C222.733 116.047 222.774 116.072 222.804 116.115C222.834 116.159 222.851 116.218 222.851 116.279C222.851 116.34 222.834 116.399 222.804 116.442C222.774 116.485 222.733 116.51 222.69 116.511Z" fill="#CCCCCC"/>
<path d="M222.69 122.08H165.502C165.459 122.08 165.418 122.056 165.387 122.013C165.356 121.97 165.339 121.912 165.338 121.85C165.338 121.789 165.355 121.73 165.385 121.686C165.415 121.642 165.456 121.617 165.499 121.616H222.69C222.733 121.617 222.774 121.641 222.804 121.685C222.834 121.728 222.851 121.787 222.851 121.848C222.851 121.909 222.834 121.968 222.804 122.011C222.774 122.055 222.733 122.079 222.69 122.08Z" fill="#CCCCCC"/>
<path d="M222.69 127.649H165.502C165.459 127.65 165.418 127.626 165.387 127.583C165.356 127.539 165.339 127.481 165.338 127.419C165.338 127.358 165.355 127.299 165.385 127.255C165.415 127.211 165.456 127.186 165.499 127.185H222.69C222.733 127.186 222.774 127.211 222.804 127.254C222.834 127.297 222.851 127.356 222.851 127.417C222.851 127.478 222.834 127.537 222.804 127.581C222.774 127.624 222.733 127.649 222.69 127.649Z" fill="#CCCCCC"/>
<path d="M212.658 72.1969V102.364H159.441C156.625 102.503 153.884 101.048 151.823 98.3172C149.762 95.5869 148.549 91.8056 148.451 87.8052C148.353 83.8048 149.378 79.913 151.301 76.9858C153.223 74.0587 155.886 72.3361 158.702 72.1969C158.949 72.1847 159.195 72.1847 159.441 72.1969H212.658Z" fill="#F2F2F2"/>
<path d="M213.965 102.132C213.965 102.44 213.879 102.735 213.726 102.952C213.572 103.17 213.365 103.292 213.148 103.292H158.493C155.525 103.292 152.678 101.618 150.579 98.6365C148.48 95.6555 147.301 91.6123 147.301 87.3965C147.301 83.1807 148.48 79.1375 150.579 76.1565C152.678 73.1755 155.525 71.5008 158.493 71.5008H213.148C213.255 71.5008 213.362 71.5308 213.461 71.5891C213.56 71.6474 213.65 71.7328 213.726 71.8406C213.802 71.9483 213.862 72.0762 213.903 72.217C213.944 72.3578 213.965 72.5087 213.965 72.661C213.965 72.8134 213.944 72.9643 213.903 73.105C213.862 73.2458 213.802 73.3737 213.726 73.4815C213.65 73.5892 213.56 73.6747 213.461 73.733C213.362 73.7913 213.255 73.8213 213.148 73.8213H158.493C155.958 73.8213 153.527 75.2515 151.735 77.7974C149.942 80.3432 148.935 83.7962 148.935 87.3965C148.935 90.9969 149.942 94.4498 151.735 96.9957C153.527 99.5415 155.958 100.972 158.493 100.972H213.148C213.365 100.972 213.572 101.094 213.726 101.312C213.879 101.529 213.965 101.824 213.965 102.132Z" fill="#3F3D56"/>
<path d="M212.658 79.1585H155.471C155.427 79.1589 155.386 79.1349 155.355 79.0918C155.324 79.0487 155.307 78.99 155.306 78.9286C155.306 78.8672 155.323 78.8081 155.353 78.7642C155.383 78.7203 155.424 78.6953 155.468 78.6945H212.658C212.701 78.6951 212.742 78.7198 212.772 78.7632C212.803 78.8067 212.82 78.8653 212.82 78.9265C212.82 78.9876 212.803 79.0463 212.772 79.0898C212.742 79.1332 212.701 79.1579 212.658 79.1585Z" fill="#CCCCCC"/>
<path d="M212.658 84.7279H155.471C155.427 84.7282 155.386 84.7042 155.355 84.6611C155.324 84.618 155.307 84.5594 155.306 84.498C155.306 84.4366 155.323 84.3775 155.353 84.3336C155.383 84.2897 155.424 84.2646 155.468 84.2638H212.658C212.701 84.2644 212.742 84.2891 212.772 84.3326C212.803 84.376 212.82 84.4347 212.82 84.4958C212.82 84.557 212.803 84.6157 212.772 84.6591C212.742 84.7026 212.701 84.7273 212.658 84.7279Z" fill="#CCCCCC"/>
<path d="M212.658 90.2972H155.471C155.427 90.2975 155.386 90.2735 155.355 90.2304C155.324 90.1873 155.307 90.1287 155.306 90.0673C155.306 90.0059 155.323 89.9468 155.353 89.9029C155.383 89.859 155.424 89.8339 155.468 89.8331H212.658C212.701 89.8337 212.742 89.8584 212.772 89.9019C212.803 89.9453 212.82 90.004 212.82 90.0651C212.82 90.1263 212.803 90.185 212.772 90.2284C212.742 90.2719 212.701 90.2966 212.658 90.2972Z" fill="#CCCCCC"/>
<path d="M212.658 95.8665H155.471C155.427 95.8668 155.386 95.8428 155.355 95.7997C155.324 95.7566 155.307 95.698 155.306 95.6366C155.306 95.5752 155.323 95.5161 155.353 95.4722C155.383 95.4283 155.424 95.4032 155.468 95.4024H212.658C212.701 95.403 212.742 95.4277 212.772 95.4712C212.803 95.5146 212.82 95.5733 212.82 95.6344C212.82 95.6956 212.803 95.7542 212.772 95.7977C212.742 95.8411 212.701 95.8659 212.658 95.8665Z" fill="#CCCCCC"/>
<path d="M274.565 242.471V216.168C274.565 215.005 274.24 213.89 273.661 213.068C273.082 212.246 272.297 211.784 271.478 211.784H201.256C200.437 211.784 199.652 212.246 199.073 213.068C198.494 213.89 198.169 215.005 198.169 216.168V242.471H274.565Z" fill="#CCCCCC"/>
<path d="M274.565 252.335H198.169V286.309H274.565V252.335Z" fill="#CCCCCC"/>
<path d="M198.169 296.173V322.476C198.169 323.639 198.494 324.754 199.073 325.576C199.652 326.398 200.437 326.86 201.256 326.86H271.478C272.297 326.86 273.082 326.398 273.661 325.576C274.24 324.754 274.565 323.639 274.565 322.476V296.173H198.169Z" fill="#CCCCCC"/>
<path d="M235.981 231.511C237.26 231.511 238.296 230.039 238.296 228.223C238.296 226.407 237.26 224.935 235.981 224.935C234.702 224.935 233.666 226.407 233.666 228.223C233.666 230.039 234.702 231.511 235.981 231.511Z" fill="white"/>
<path d="M235.981 275.35C237.26 275.35 238.296 273.878 238.296 272.062C238.296 270.246 237.26 268.774 235.981 268.774C234.702 268.774 233.666 270.246 233.666 272.062C233.666 273.878 234.702 275.35 235.981 275.35Z" fill="white"/>
<path d="M236.105 318.26C237.384 318.26 238.42 316.788 238.42 314.972C238.42 313.156 237.384 311.684 236.105 311.684C234.827 311.684 233.79 313.156 233.79 314.972C233.79 316.788 234.827 318.26 236.105 318.26Z" fill="white"/>
<path d="M265.903 181.793V211.96H212.687C209.871 212.097 207.133 210.64 205.074 207.91C203.014 205.18 201.802 201.4 201.704 197.402C201.606 193.403 202.63 189.513 204.551 186.586C206.472 183.659 209.132 181.935 211.947 181.793C212.194 181.781 212.44 181.781 212.687 181.793H265.903Z" fill="#F2F2F2"/>
<path d="M267.211 211.728C267.211 212.036 267.124 212.331 266.971 212.548C266.818 212.766 266.61 212.888 266.394 212.888H211.739C208.771 212.889 205.925 211.217 203.826 208.237C201.726 205.258 200.546 201.217 200.544 197.002C200.542 192.787 201.719 188.744 203.816 185.761C205.913 182.779 208.758 181.101 211.726 181.097H266.394C266.501 181.097 266.608 181.126 266.707 181.184C266.806 181.242 266.897 181.328 266.973 181.436C267.049 181.543 267.109 181.671 267.15 181.812C267.192 181.953 267.213 182.105 267.213 182.257C267.213 182.41 267.192 182.561 267.15 182.702C267.109 182.843 267.049 182.971 266.973 183.079C266.897 183.186 266.806 183.272 266.707 183.33C266.608 183.388 266.501 183.418 266.394 183.417H211.739C209.206 183.422 206.778 184.854 204.988 187.4C203.199 189.945 202.193 193.395 202.193 196.993C202.193 200.59 203.199 204.04 204.988 206.586C206.778 209.131 209.206 210.563 211.739 210.568H266.394C266.61 210.568 266.818 210.69 266.971 210.908C267.124 211.125 267.211 211.42 267.211 211.728Z" fill="#3F3D56"/>
<path d="M265.903 188.755H208.716C208.673 188.755 208.632 188.731 208.601 188.688C208.57 188.645 208.553 188.586 208.552 188.525C208.552 188.463 208.568 188.404 208.599 188.36C208.629 188.317 208.67 188.291 208.713 188.291H265.904C265.947 188.291 265.988 188.316 266.018 188.359C266.048 188.403 266.065 188.462 266.065 188.523C266.065 188.584 266.048 188.642 266.018 188.686C265.988 188.729 265.947 188.754 265.903 188.755Z" fill="#CCCCCC"/>
<path d="M265.903 194.324H208.716C208.673 194.324 208.632 194.3 208.601 194.257C208.57 194.214 208.553 194.156 208.552 194.094C208.552 194.033 208.568 193.974 208.599 193.93C208.629 193.886 208.67 193.861 208.713 193.86H265.904C265.947 193.861 265.988 193.885 266.018 193.929C266.048 193.972 266.065 194.031 266.065 194.092C266.065 194.153 266.048 194.212 266.018 194.255C265.988 194.299 265.947 194.323 265.903 194.324Z" fill="#CCCCCC"/>
<path d="M265.903 199.893H208.716C208.673 199.894 208.632 199.87 208.601 199.827C208.57 199.784 208.553 199.725 208.552 199.664C208.552 199.602 208.568 199.543 208.599 199.499C208.629 199.455 208.67 199.43 208.713 199.429H265.904C265.947 199.43 265.988 199.455 266.018 199.498C266.048 199.542 266.065 199.6 266.065 199.661C266.065 199.723 266.048 199.781 266.018 199.825C265.988 199.868 265.947 199.893 265.903 199.893Z" fill="#CCCCCC"/>
<path d="M265.903 205.463H208.716C208.673 205.463 208.632 205.439 208.601 205.396C208.57 205.353 208.553 205.294 208.552 205.233C208.552 205.171 208.568 205.112 208.599 205.068C208.629 205.024 208.67 204.999 208.713 204.999H265.904C265.947 204.999 265.988 205.024 266.018 205.067C266.048 205.111 266.065 205.169 266.065 205.231C266.065 205.292 266.048 205.35 266.018 205.394C265.988 205.437 265.947 205.462 265.903 205.463Z" fill="#CCCCCC"/>
<path d="M203.404 62.1332H179.157C178.927 62.133 178.7 62.208 178.494 62.3524L172.374 66.7034C172.173 66.8249 172.001 67.028 171.881 67.2872C171.76 67.5463 171.695 67.8502 171.695 68.161C171.695 68.4718 171.76 68.7757 171.881 69.0348C172.001 69.294 172.173 69.497 172.374 69.6186L178.494 73.9695C178.7 74.114 178.927 74.189 179.157 74.1888H203.404C203.738 74.2162 204.066 74.0556 204.317 73.7418C204.569 73.4279 204.723 72.9861 204.746 72.5119V63.81C204.723 63.3359 204.569 62.8941 204.317 62.5802C204.066 62.2664 203.738 62.1058 203.404 62.1332Z" fill="#3F3D56"/>
<path d="M204.746 63.8101V72.512C204.723 72.9861 204.569 73.428 204.317 73.7418C204.066 74.0557 203.738 74.2163 203.403 74.1888H198.573V62.1332H203.403C203.738 62.1058 204.066 62.2664 204.317 62.5802C204.569 62.8941 204.723 63.3359 204.746 63.8101Z" fill="#E04B4B"/>
<path d="M58.0411 232.643C61.1631 234.202 64.5152 234.592 67.7743 233.777C71.0334 232.962 74.0897 230.968 76.6488 227.988C83.1663 220.219 85.2097 207.42 86.8723 195.568C88.5116 183.883 90.1508 172.198 91.7901 160.513L81.4942 170.582C74.09 177.822 66.519 185.295 61.3923 195.783C56.2657 206.271 54.0279 220.588 58.147 231.936" fill="#E6E6E6"/>
<path d="M58.9212 275.085C57.8791 264.304 56.8076 253.385 57.5386 242.489C58.1878 232.812 60.2664 223.361 64.4984 215.611C66.7448 211.506 69.4781 207.988 72.5756 205.216C73.3833 204.492 74.1267 206.31 73.3225 207.031C67.963 211.842 63.8176 218.945 61.484 227.318C58.9065 236.629 58.4927 246.778 58.9368 256.668C59.2054 262.649 59.7746 268.591 60.3483 274.526C60.3935 274.794 60.3653 275.077 60.2694 275.317C60.1734 275.557 60.0169 275.736 59.8315 275.818C59.6423 275.891 59.4406 275.854 59.2702 275.717C59.0998 275.58 58.9744 275.352 58.9212 275.085Z" fill="#F2F2F2"/>
<path d="M68.9584 256.008C70.2974 258.899 72.1379 261.25 74.3026 262.837C76.4673 264.424 78.8833 265.192 81.3178 265.068C87.5743 264.646 92.7903 258.444 97.4857 252.557L111.374 235.142L102.182 234.517C95.5721 234.068 88.7916 233.649 82.4958 236.544C76.2 239.439 70.3937 246.406 69.2425 255.661" fill="#E6E6E6"/>
<path d="M55.9762 281.282C60.9919 268.677 66.8097 254.669 77.2051 250.191C80.0955 248.951 83.1263 248.506 86.1343 248.882C87.0823 248.998 86.8456 251.073 85.8993 250.958C80.8573 250.363 75.825 252.254 71.6497 256.312C67.6318 260.196 64.5035 265.596 61.8557 271.322C60.2338 274.83 58.7811 278.486 57.328 282.138C56.8637 283.305 55.5064 282.462 55.9762 281.282Z" fill="#F2F2F2"/>
<path d="M47.9396 294.549C48.1086 291.768 48.8117 289.106 49.9722 286.853C51.1328 284.6 52.7064 282.843 54.5215 281.772V274.485H63.127V282.002C64.8529 283.125 66.3382 284.878 67.4315 287.082C68.5248 289.286 69.187 291.863 69.3506 294.549L71.3741 327.956H45.9161L47.9396 294.549Z" fill="#F2F2F2"/>
<path d="M340.597 135.037L338.037 133.506L336.281 115.28H312.895L310.991 133.432L308.701 135.058C308.591 135.136 308.503 135.264 308.452 135.422C308.4 135.579 308.387 135.757 308.415 135.927C308.443 136.096 308.511 136.247 308.607 136.355C308.703 136.463 308.822 136.522 308.944 136.522H340.386C340.512 136.522 340.633 136.46 340.73 136.347C340.828 136.234 340.894 136.077 340.919 135.902C340.944 135.727 340.926 135.546 340.867 135.388C340.808 135.23 340.713 135.107 340.597 135.037Z" fill="#E6E6E6"/>
<path d="M382.156 117.705H267.276C266.674 117.703 266.096 117.362 265.67 116.756C265.245 116.15 265.005 115.329 265.005 114.473V91.4656H384.427V114.473C384.427 115.329 384.188 116.15 383.762 116.756C383.336 117.362 382.759 117.703 382.156 117.705Z" fill="#CCCCCC"/>
<path d="M384.547 102.339H264.901V3.89661C264.902 2.86351 265.191 1.87306 265.705 1.14256C266.22 0.412063 266.917 0.00115597 267.644 0H381.803C382.531 0.00115595 383.228 0.412064 383.742 1.14256C384.257 1.87306 384.546 2.8635 384.547 3.89661L384.547 102.339Z" fill="#3F3D56"/>
<path d="M377.401 95.1943H272.047C271.486 95.1935 270.948 94.8767 270.552 94.3135C270.155 93.7504 269.932 92.9868 269.932 92.1903V10.149C269.932 9.35253 270.155 8.58892 270.552 8.02572C270.948 7.46251 271.486 7.14571 272.047 7.1448H377.401C377.962 7.14571 378.499 7.46251 378.896 8.02572C379.293 8.58892 379.516 9.35253 379.516 10.149V92.1903C379.516 92.9868 379.293 93.7504 378.896 94.3135C378.499 94.8767 377.962 95.1935 377.401 95.1943Z" fill="white"/>
<path d="M349.652 124.143C350.332 123.25 351.142 122.581 352.024 122.181C352.906 121.781 353.84 121.661 354.758 121.829C355.676 121.996 356.558 122.448 357.34 123.152C358.122 123.856 358.786 124.795 359.285 125.902L373.535 122.304L377.187 134.07L357.013 138.75C355.647 139.817 354.053 140.136 352.532 139.646C351.012 139.155 349.671 137.89 348.764 136.089C347.857 134.289 347.446 132.078 347.61 129.876C347.773 127.674 348.5 125.634 349.652 124.143Z" fill="#FFB6B6"/>
<path d="M362.846 139.166L377.702 138.903L379.583 138.867L409.809 138.326C409.809 138.326 418.017 127.204 425.164 115.754L424.162 105.464C423.185 95.3642 419.657 86.1132 414.236 79.4319C404 89.1463 398.063 108.375 398.063 108.375L379.322 114.741L377.447 115.378L365.802 119.33L362.846 139.166Z" fill="#E04B4B"/>
<path d="M438.897 202.417H411.166C411.166 204.104 380.852 205.474 380.852 205.474C380.183 206.189 379.574 207.009 379.035 207.92C377.417 210.661 376.533 214.125 376.538 217.703V220.148C376.539 224.202 377.673 228.089 379.692 230.955C381.71 233.822 384.447 235.433 387.301 235.434H438.897C441.751 235.431 444.487 233.819 446.505 230.953C448.523 228.087 449.658 224.201 449.66 220.148V217.703C449.656 213.65 448.521 209.765 446.503 206.9C444.486 204.035 441.75 202.422 438.897 202.417Z" fill="#E4E4E4"/>
<path d="M418.731 234.827H407.538V326.587H418.731V234.827Z" fill="#E4E4E4"/>
<path d="M375.679 326.029C375.679 327.746 392.641 326.693 413.565 326.693C434.489 326.693 451.45 327.746 451.45 326.029C451.45 324.311 434.489 310.69 413.565 310.69C392.641 310.69 375.679 324.311 375.679 326.029Z" fill="#E4E4E4"/>
<path d="M368.16 315.544L359.83 315.543L355.867 269.908L368.161 269.909L368.16 315.544Z" fill="#FFB6B6"/>
<path d="M370.285 327.013L343.423 327.011V326.529C343.424 322.591 344.525 318.814 346.486 316.029C348.447 313.245 351.106 311.68 353.879 311.68H353.879L370.285 311.681L370.285 327.013Z" fill="#2F2E41"/>
<path d="M343.539 315.544L335.208 315.543L331.245 269.908L343.54 269.909L343.539 315.544Z" fill="#FFB6B6"/>
<path d="M345.663 327.013L318.802 327.011V326.529C318.802 322.591 319.903 318.814 321.864 316.029C323.825 313.245 326.484 311.68 329.257 311.68H329.257L345.663 311.681L345.663 327.013Z" fill="#2F2E41"/>
<path d="M418.162 52.8152C426.162 52.8152 432.647 43.605 432.647 32.2437C432.647 20.8823 426.162 11.6721 418.162 11.6721C410.163 11.6721 403.678 20.8823 403.678 32.2437C403.678 43.605 410.163 52.8152 418.162 52.8152Z" fill="#FFB6B6"/>
<path d="M441.605 173.192C441.605 173.192 446.465 209.691 427.974 214.339C409.482 218.987 382.789 222.253 382.789 222.253L370.802 301.682L354.698 299.641C354.698 299.641 356.839 204.025 362.107 196.545C367.374 189.064 400.664 166.666 400.664 166.666L441.605 173.192Z" fill="#2F2E41"/>
<path d="M405.49 157.895L397.402 169.418C397.402 169.418 339.007 182.777 336.754 201.932C333.353 230.852 329.336 293.74 329.336 293.74L346.893 291.87L353.778 220.383L381.869 211.308L413.83 186.571L405.49 157.895Z" fill="#2F2E41"/>
<path d="M432.101 19.964C430.671 16.1326 428.854 8.49657 425.968 7.08038C424.365 6.32563 422.709 5.82446 421.029 5.58598L416.123 8.26552L418.793 5.31654C418.273 5.27256 417.754 5.23661 417.235 5.20868L413.925 7.01658L415.618 5.14613C412.532 5.10115 409.347 5.55681 406.957 8.22458C404.918 10.4989 402.899 19.1143 402.572 22.7662C402.223 26.2598 402.345 29.8158 402.932 33.2445L403.771 34.3764C404.064 33.4216 404.284 32.425 404.428 31.4035C404.729 29.4951 405.306 27.6964 406.123 26.1222C406.94 24.548 407.979 23.2328 409.173 22.2605L409.219 22.2239C410.625 21.1002 412.331 21.152 413.943 21.2344L421.599 21.6257C423.441 21.7199 425.425 21.8854 426.861 23.5265C427.774 24.7371 428.491 26.2136 428.965 27.8549C429.678 29.9005 431.073 37.6158 431.073 37.6158C431.073 37.6158 431.862 36.1594 432.24 37.2434C432.846 34.4153 433.215 31.4951 433.338 28.544C433.459 25.5797 433.032 22.622 432.101 19.964Z" fill="#2F2E41"/>
<path d="M482.761 41.2777C481.837 41.3641 480.938 41.7372 480.126 42.3707C479.315 43.0042 478.611 43.8826 478.065 44.9442C477.518 46.0058 477.142 47.2246 476.963 48.5149C476.784 49.8052 476.806 51.1355 477.029 52.4122L465.381 64.6148L468.876 76.4763L485.154 58.9157C486.64 58.2435 487.9 56.8208 488.696 54.9171C489.492 53.0135 489.769 50.7612 489.474 48.5871C489.179 46.413 488.333 44.4681 487.096 43.1209C485.858 41.7738 484.316 41.1179 482.761 41.2777Z" fill="#FFB6B6"/>
<path d="M480.887 66.1895L451.687 112.247C451.687 112.247 437.723 105.899 426.923 99.0156L422.072 77.8524C420.945 72.9429 420.464 67.7807 420.653 62.624C435.624 56.9661 453.038 78.0183 453.038 78.0183L474.895 53.7026L480.887 66.1895Z" fill="#E04B4B"/>
<path d="M412.752 176.594C407.542 174.038 402.156 171.395 396.345 170.403L396.096 170.361L396.164 170.017C402.179 140.024 400.678 120.837 397.73 92.016C397.104 85.7993 397.909 79.4614 400.027 73.9483C402.144 68.4351 405.46 64.0424 409.48 61.4257L409.516 61.4028L426.111 59.9051L426.149 59.9018L438.218 64.9432C439.954 65.6738 441.474 67.1927 442.544 69.2672C443.614 71.3417 444.176 73.8573 444.143 76.4286C444.013 85.907 444.29 96.4893 444.584 107.693C445.242 132.827 445.923 158.817 442.059 175.68L442.038 175.768L441.987 175.826C438.434 179.935 433.983 182.156 429.401 182.104C423.984 182.104 418.456 179.392 412.752 176.594Z" fill="#E04B4B"/>
<path d="M533.228 329H0.771678C0.567017 329 0.37074 328.885 0.226022 328.679C0.0813052 328.473 0 328.195 0 327.904C0 327.613 0.0813052 327.335 0.226022 327.129C0.37074 326.924 0.567017 326.808 0.771678 326.808H533.228C533.433 326.808 533.629 326.924 533.774 327.129C533.919 327.335 534 327.613 534 327.904C534 328.195 533.919 328.473 533.774 328.679C533.629 328.885 533.433 329 533.228 329Z" fill="#CCCCCC"/>
</g>
<defs>
<clipPath id="clip0_31_39">
<rect width="490" height="329" fill="white"/>
</clipPath>
</defs>
</svg>
